<?xml version="1.0" encoding="utf-8"?>
<!-- Generator: Adobe Illustrator 26.5.3, SVG Export Plug-In . SVG Version: 6.00 Build 0)  -->
<svg version="1.1" id="Layer_1" xmlns="http://www.w3.org/2000/svg" xmlns:xlink="http://www.w3.org/1999/xlink" x="0px" y="0px"
	 viewBox="0 0 1355 500" style="enable-background:new 0 0 1355 500;" xml:space="preserve">
<style type="text/css">
	.st0{fill:#FFFFFF;}
	.st1{fill:#6999BE;}
</style>
<g>
	<g>
		<path class="st0" d="M649.9,248.5c-13.9,0-25.7,4.5-35.4,13.6c-9.5,9.1-14.2,20.5-14.2,34.4c0,10.5,2.8,19,8.3,25.7
			c4.4,5.2,11.9,10.5,22.6,15.7c3.8,1.9,7.6,3.7,11.3,5.4c3.7,1.7,7.4,3.5,11.1,5.4c9.6,5.7,14.4,11.8,14.4,18.3
			c0,11.4-6.2,17-18.7,17c-6.2,0-11.6-2.1-16-6.2c-2.3-2.1-5.6-6.9-10-14.6l-31.4,14.6c11.1,26.1,30.1,39.1,56.8,39.1
			c15.6,0,28.9-4.9,39.9-14.7c11.4-10.4,17-23.2,17-38.6c0-12-3.4-21.6-10.2-28.7c-6.8-7.1-19.9-14.8-39.5-23.2
			c-14.2-6-21.3-12.1-21.3-18.2c0-3.5,1.2-6.4,3.6-8.6c2.4-2.2,5.3-3.4,8.7-3.4c7.1,0,13,4.9,17.8,14.7l30.5-16.2
			C685.5,259,670.3,248.5,649.9,248.5 M457.4,295.8c8.7-9.4,20.1-14.1,34.2-14.1c14.3,0,25.8,4.7,34.5,14.1
			c8.6,9.3,12.9,21.7,12.9,37.2c0,15.5-4.3,27.9-12.9,37.2c-8.6,9.3-20.1,13.9-34.5,13.9c-14.3,0-25.8-4.7-34.5-14.1
			c-8.5-9.3-12.8-21.9-12.8-37.8C444.3,317.3,448.7,305.2,457.4,295.8 M430.9,392.4c16.2,16.4,36.2,24.6,60.1,24.6
			c24.1,0,44.5-8,61.1-24.1c16.5-16.2,24.7-36.2,24.7-60.1c0-23.7-8.2-43.7-24.6-59.9c-16.6-16.3-36.8-24.4-60.6-24.4
			c-23.7,0-43.8,8.1-60.3,24.2c-16.5,16.2-24.7,35.7-24.7,58.8C406.7,355.9,414.8,376.2,430.9,392.4 M165.8,154.7
			c-21.6,0-39.7,6.4-54.2,19.3c-14.5,12.8-21.8,28.7-21.8,47.6c0,28.2,17.3,49.6,51.9,64.2l24.4,10.2c6.3,2.7,11.8,5.6,16.4,8.6
			c4.6,3,8.3,6.2,11.2,9.7c2.9,3.4,5,7.2,6.4,11.3c1.4,4.1,2,8.6,2,13.5c0,12.2-3.9,22.3-11.8,30.3c-7.9,8-17.7,12-29.6,12
			c-15.1,0-26.5-5.5-34.4-16.4c-4.4-5.7-7.4-15.9-9.2-30.8l-38.6,8.5c3.5,23.6,12.3,41.9,26.4,54.8c14.3,13,32.4,19.5,54.4,19.5
			c23.1,0,42.5-7.6,58.1-22.9c15.5-15.2,23.2-34.4,23.2-57.6c0-17.4-4.7-32-14.2-44s-24.5-22.1-45-30.4l-25.2-10.3
			c-18.3-7.5-27.5-17.5-27.5-29.8c0-8.9,3.5-16.4,10.5-22.3c7-6,15.8-9,26.4-9c8.6,0,15.7,1.7,21.1,5.2c5.2,3.1,10.7,9.6,16.5,19.6
			l30.9-18.3C217.7,168.8,194.9,154.7,165.8,154.7"/>
	</g>
	<polygon class="st0" points="265.6,202.9 265.6,412.4 302.5,412.4 302.5,351 308.4,345.1 361.1,412.4 408.9,412.4 334.6,319.9 
		403.8,252.9 354.4,252.9 302.5,304.5 302.5,202.9 	"/>
	<g>
		<path class="st1" d="M1221.7,248.5c-13.9,0-25.7,4.5-35.4,13.6c-9.5,9.1-14.2,20.5-14.2,34.4c0,10.5,2.8,19,8.4,25.7
			c4.4,5.2,11.9,10.5,22.6,15.7c3.8,1.9,7.6,3.7,11.3,5.4c3.7,1.7,7.4,3.5,11.1,5.4c9.6,5.7,14.4,11.8,14.4,18.3
			c0,11.4-6.2,17-18.7,17c-6.2,0-11.6-2.1-16-6.2c-2.3-2.1-5.6-6.9-10-14.6l-31.4,14.6c11.1,26.1,30.1,39.1,56.8,39.1
			c15.6,0,28.9-4.9,39.9-14.7c11.4-10.4,17-23.2,17-38.6c0-12-3.4-21.6-10.2-28.7c-6.8-7.1-19.9-14.8-39.5-23.2
			c-14.2-6-21.3-12.1-21.3-18.2c0-3.5,1.2-6.4,3.6-8.6c2.4-2.2,5.3-3.4,8.7-3.4c7.1,0,13,4.9,17.8,14.7l30.5-16.2
			C1257.3,259,1242.1,248.5,1221.7,248.5 M1029.3,295.8c8.7-9.4,20.1-14.1,34.2-14.1c14.3,0,25.8,4.7,34.5,14.1
			c8.6,9.3,12.9,21.7,12.9,37.2c0,15.5-4.3,27.9-12.9,37.2c-8.6,9.3-20.1,13.9-34.5,13.9c-14.3,0-25.8-4.7-34.5-14.1
			c-8.5-9.3-12.8-21.9-12.8-37.8C1016.2,317.3,1020.5,305.2,1029.3,295.8 M1002.7,392.4c16.2,16.4,36.2,24.6,60.1,24.6
			c24.1,0,44.5-8,61.1-24.1c16.5-16.2,24.7-36.2,24.7-60.1c0-23.7-8.2-43.7-24.6-59.9c-16.6-16.3-36.8-24.4-60.6-24.4
			c-23.7,0-43.8,8.1-60.3,24.2c-16.5,16.2-24.7,35.7-24.7,58.8C978.5,355.9,986.6,376.2,1002.7,392.4"/>
		<path class="st1" d="M952,310.2c0-17.6-6.3-32.6-18.7-44.7c-12.5-12-28-18.1-45.9-18.1c-17.9,0-33.2,6.1-45.7,18
			c-0.4,0.4-0.8,0.9-1.2,1.3c-0.4-0.4-0.7-0.8-1.1-1.2c-12.5-12-28-18.1-45.9-18.1c-17.9,0-33.2,6.1-45.7,18
			c-12.5,12-18.8,26.8-18.8,43.9c0,1,0.5,103.1,0.5,103.1l34.9-0.1c0,0-0.5-97.1-0.5-102.6c0-9.4,2.7-16.7,8.2-22.6
			c5.5-5.8,12.5-8.6,21.4-8.6c9.1,0,16.2,2.8,21.6,8.6c4.6,4.9,7.9,11.5,7.9,20.6c0,7.5-0.1,98.8-0.1,100.2l-0.4,4.4h35.1l0-0.1
			l0.7,0c0,0-0.4-100.2-0.4-103.9c0-10.3,3.3-16.2,8-21.2c5.5-5.8,12.5-8.6,21.4-8.6c9.1,0,16.2,2.8,21.6,8.6
			c5.4,5.7,8.1,13.3,8.1,23.1c0,5.7-0.7,102.1-0.7,102.1h35.1C951.5,412.4,952,311.1,952,310.2"/>
	</g>
	<rect x="265.1" y="121" class="st0" width="36.4" height="26.9"/>
	<rect x="265.1" y="69" class="st0" width="36.4" height="11.3"/>
	<rect x="265.1" y="160" class="st0" width="36.4" height="30.3"/>
	<rect x="265.1" y="92.4" class="st0" width="36.4" height="16.5"/>
</g>
</svg>
