<?xml version="1.0" encoding="utf-8"?>
<!-- Generator: Adobe Illustrator 26.0.2, SVG Export Plug-In . SVG Version: 6.00 Build 0)  -->
<svg version="1.1" id="Layer_1" xmlns="http://www.w3.org/2000/svg" xmlns:xlink="http://www.w3.org/1999/xlink" x="0px" y="0px"
	 viewBox="0 0 30 30" style="enable-background:new 0 0 30 30;" xml:space="preserve">
<style type="text/css">
	.st0{fill:#FFFFFF;}
</style>
<g>
	<path class="st0" d="M23.8,15c0,0.6-0.5,1-1,1h-1l0,4.9c0,0.1,0,0.2,0,0.2v0.5c0,0.7-0.6,1.2-1.2,1.2h-0.5c0,0-0.1,0-0.1,0
		c0,0-0.1,0-0.1,0h-1h-0.7c-0.7,0-1.2-0.5-1.2-1.2v-0.7v-2c0-0.5-0.4-1-1-1h-2c-0.5,0-1,0.4-1,1v2v0.7c0,0.7-0.5,1.2-1.2,1.2h-0.7
		h-1c0,0-0.1,0-0.1,0c0,0-0.1,0-0.1,0H9.3c-0.7,0-1.2-0.5-1.2-1.2v-3.4c0,0,0-0.1,0-0.1V16h-1c-0.6,0-1-0.4-1-1
		c0-0.3,0.1-0.5,0.3-0.7l7.9-6.9c0.2-0.2,0.5-0.2,0.7-0.2c0.2,0,0.5,0.1,0.6,0.2l7.8,6.9C23.7,14.5,23.9,14.7,23.8,15"/>
</g>
</svg>
