<?xml version="1.0" encoding="utf-8"?>
<!-- Generator: Adobe Illustrator 26.0.2, SVG Export Plug-In . SVG Version: 6.00 Build 0)  -->
<svg version="1.1" id="Layer_1" xmlns="http://www.w3.org/2000/svg" xmlns:xlink="http://www.w3.org/1999/xlink" x="0px" y="0px"
	 viewBox="0 0 30 30" style="enable-background:new 0 0 30 30;" xml:space="preserve">
<style type="text/css">
	.st0{fill:#0d284e;}
</style>
<g>
	<path class="st0" d="M23.1,14.5c0,3.6-3.6,6.5-8.1,6.5c-1.2,0-2.3-0.2-3.3-0.6c-0.4,0.3-1,0.6-1.7,1C9.3,21.8,8.4,22,7.5,22
		c-0.2,0-0.4-0.1-0.5-0.3c-0.1-0.2,0-0.4,0.1-0.5l0,0c0,0,0,0,0,0c0,0,0.1-0.1,0.2-0.2c0.1-0.2,0.3-0.4,0.5-0.7
		c0.3-0.5,0.6-1.2,0.7-2c-0.9-1.1-1.5-2.4-1.5-3.8C6.9,10.9,10.6,8,15,8S23.1,10.9,23.1,14.5"/>
</g>
</svg>
