<?xml version="1.0" encoding="utf-8"?>
<!-- Generator: Adobe Illustrator 26.0.2, SVG Export Plug-In . SVG Version: 6.00 Build 0)  -->
<svg version="1.1" id="Layer_1" xmlns="http://www.w3.org/2000/svg" xmlns:xlink="http://www.w3.org/1999/xlink" x="0px" y="0px"
	 viewBox="0 0 250 80" style="enable-background:new 0 0 250 80;" xml:space="preserve">
<style type="text/css">
	.st0{fill:#FFFFFF;}
</style>
<g>
	<path class="st0" d="M228.6,58.5c1.7-0.7,3-1.6,4-2.9c0.9-1.3,1.4-2.8,1.4-4.5c0-0.6-0.1-1.3-0.3-2c-0.2-0.8-0.6-1.5-1.1-2.2
		c-0.5-0.7-1.2-1.4-2.2-2.1c-0.9-0.6-2.2-1.1-3.7-1.5l-4.3-1c-1.4-0.3-2.5-0.6-3.2-1c-0.7-0.4-1-1-1-1.7c0-0.9,0.4-1.7,1.3-2.1
		s1.9-0.7,3.2-0.7c1.3,0,2.3,0.3,3.2,0.8c0.8,0.6,1.3,1.4,1.5,2.4h6.3c0-2.6-1-4.7-3-6.1c-2-1.4-4.6-2.2-7.9-2.2
		c-2.4,0-4.5,0.4-6.2,1.1c-1.7,0.7-2.9,1.8-3.8,3c-0.9,1.3-1.3,2.7-1.3,4.3c0,2.2,0.7,3.9,2.2,5.1s3.3,2,5.7,2.5l4.7,1
		c1.2,0.2,2.1,0.6,2.6,1c0.5,0.4,0.8,1,0.8,1.7c0,0.9-0.4,1.7-1.3,2.1c-0.9,0.5-2,0.7-3.5,0.7c-0.7,0-1.4-0.1-2.2-0.3
		c-0.8-0.2-1.4-0.6-2-1.2s-1-1.3-1.3-2.3h-6.5c0.3,2.1,1.1,3.8,2.3,5.1s2.7,2.3,4.4,2.9c1.7,0.6,3.5,0.9,5.4,0.9
		C225,59.5,226.9,59.2,228.6,58.5 M191,52.6c-0.8-0.8-1.4-1.9-1.7-3.1c-0.3-1.3-0.5-2.6-0.5-4c0-1.5,0.2-2.9,0.6-4.2
		c0.4-1.3,1-2.2,1.8-3c0.8-0.7,1.9-1.1,3.2-1.1c1.4,0,2.5,0.4,3.3,1.2c0.8,0.8,1.4,1.8,1.7,3.1c0.3,1.3,0.5,2.6,0.5,4
		c0,1.5-0.2,2.9-0.5,4.2c-0.4,1.3-0.9,2.3-1.8,3.1c-0.8,0.8-1.9,1.2-3.2,1.2C193,53.9,191.9,53.5,191,52.6 M201.3,57.7
		c1.9-1.2,3.4-2.8,4.4-4.8c1-2.1,1.5-4.4,1.5-7.1c0-2.9-0.5-5.3-1.6-7.4c-1.1-2.1-2.5-3.7-4.5-4.9c-1.9-1.2-4.2-1.7-6.9-1.7
		s-4.9,0.6-6.9,1.8c-1.9,1.2-3.4,2.8-4.5,4.9c-1.1,2.1-1.6,4.6-1.6,7.4s0.5,5.2,1.6,7.3s2.6,3.6,4.5,4.8c1.9,1.1,4.2,1.7,6.8,1.7
		C197.1,59.5,199.4,58.9,201.3,57.7 M144.1,59V41.8c0-0.9,0.2-1.6,0.7-2.2c0.5-0.6,1-1,1.7-1.3c0.7-0.3,1.4-0.4,2.1-0.4
		c0.7,0,1.3,0.1,2,0.4c0.6,0.3,1.2,0.7,1.6,1.3c0.4,0.6,0.6,1.2,0.6,2V59h7.5V41.8c0-0.9,0.2-1.7,0.7-2.3c0.5-0.6,1.1-1,1.8-1.3
		c0.7-0.3,1.4-0.4,2-0.4c0.7,0,1.4,0.1,2.1,0.4c0.6,0.3,1.2,0.8,1.6,1.4c0.4,0.6,0.6,1.5,0.6,2.6V59h7.6V41.3c0-1.8-0.3-3.3-0.8-4.6
		c-0.5-1.2-1.2-2.2-2.1-3c-0.9-0.7-1.8-1.3-2.8-1.6c-1-0.3-2-0.5-3-0.5c-1.7,0-3.3,0.4-4.7,1.2c-1.4,0.8-2.5,1.8-3.4,3.1
		c-0.5-0.9-1.2-1.7-2-2.4c-0.8-0.6-1.7-1.1-2.7-1.4c-0.9-0.3-1.9-0.5-2.8-0.5c-2.1,0-3.8,0.4-5.2,1.3c-1.4,0.8-2.5,1.9-3.3,3v-3.8
		h-7.4V59H144.1z M126.1,58.5c1.7-0.7,3-1.6,4-2.9c0.9-1.3,1.4-2.8,1.4-4.5c0-0.6-0.1-1.3-0.3-2c-0.2-0.8-0.6-1.5-1.1-2.2
		c-0.5-0.7-1.2-1.4-2.2-2.1c-0.9-0.6-2.2-1.1-3.7-1.5l-4.3-1c-1.4-0.3-2.5-0.6-3.2-1c-0.7-0.4-1-1-1-1.7c0-0.9,0.4-1.7,1.3-2.1
		s1.9-0.7,3.2-0.7c1.3,0,2.3,0.3,3.2,0.8c0.8,0.6,1.3,1.4,1.5,2.4h6.3c0-2.6-1-4.7-3-6.1c-2-1.4-4.6-2.2-7.9-2.2
		c-2.4,0-4.5,0.4-6.2,1.1s-2.9,1.8-3.8,3s-1.3,2.7-1.3,4.3c0,2.2,0.7,3.9,2.2,5.1c1.4,1.2,3.3,2,5.7,2.5l4.7,1
		c1.2,0.2,2.1,0.6,2.6,1c0.5,0.4,0.8,1,0.8,1.7c0,0.9-0.4,1.7-1.3,2.1s-2,0.7-3.5,0.7c-0.7,0-1.4-0.1-2.2-0.3
		c-0.8-0.2-1.4-0.6-2-1.2c-0.6-0.6-1-1.3-1.3-2.3h-6.5c0.3,2.1,1.1,3.8,2.3,5.1c1.2,1.3,2.7,2.3,4.4,2.9c1.7,0.6,3.5,0.9,5.4,0.9
		C122.5,59.5,124.5,59.2,126.1,58.5 M88.6,52.6c-0.8-0.8-1.4-1.9-1.7-3.1c-0.3-1.3-0.5-2.6-0.5-4c0-1.5,0.2-2.9,0.6-4.2
		c0.4-1.3,1-2.2,1.8-3c0.8-0.7,1.9-1.1,3.2-1.1c1.4,0,2.5,0.4,3.3,1.2c0.8,0.8,1.4,1.8,1.7,3.1c0.3,1.3,0.5,2.6,0.5,4
		c0,1.5-0.2,2.9-0.5,4.2s-1,2.3-1.8,3.1c-0.8,0.8-1.9,1.2-3.2,1.2C90.5,53.9,89.4,53.5,88.6,52.6 M98.8,57.7
		c1.9-1.2,3.4-2.8,4.4-4.8s1.5-4.4,1.5-7.1c0-2.9-0.5-5.3-1.6-7.4c-1.1-2.1-2.5-3.7-4.5-4.9c-1.9-1.2-4.2-1.7-6.9-1.7
		S87,32.3,85,33.5s-3.4,2.8-4.5,4.9c-1.1,2.1-1.6,4.6-1.6,7.4s0.5,5.2,1.6,7.3c1.1,2.1,2.6,3.6,4.5,4.8c1.9,1.1,4.2,1.7,6.8,1.7
		C94.6,59.5,96.9,58.9,98.8,57.7 M59.7,59v-7.7l3.5-3.8L70.5,59H78L67.9,42.9l9.7-10.7h-8.1l-9.8,11.1V20.5h-7.6V59H59.7z M39.4,58
		c2.3-1,4-2.3,5.3-4c1.3-1.7,1.9-3.7,1.9-6c0-1.8-0.3-3.4-1-4.8c-0.7-1.4-1.8-2.7-3.3-3.7c-1.5-1-3.5-1.7-5.9-2.2L30,36
		c-1.7-0.4-3-0.9-3.8-1.6c-0.8-0.7-1.2-1.6-1.2-2.8c0-1.2,0.5-2.3,1.6-3.2c1-0.9,2.7-1.4,4.9-1.4c1.3,0,2.5,0.2,3.5,0.5
		c1,0.4,1.9,0.9,2.5,1.7c0.7,0.8,1.1,1.8,1.2,3.1h7.6c0-2.1-0.6-4-1.7-5.8c-1.1-1.7-2.8-3.1-4.9-4.1c-2.1-1-4.8-1.5-7.9-1.5
		c-2.8,0-5.2,0.5-7.5,1.4c-2.2,0.9-4,2.2-5.2,3.9c-1.3,1.7-1.9,3.7-1.9,6c0,2,0.4,3.7,1.2,5.1s1.9,2.5,3.4,3.4
		c1.5,0.9,3.2,1.5,5.2,1.9l7,1.5c1.6,0.4,2.9,0.9,3.8,1.5c0.9,0.6,1.4,1.6,1.4,2.9c0,1.1-0.3,2-1,2.7c-0.7,0.7-1.5,1.2-2.6,1.6
		s-2.2,0.5-3.4,0.5c-1.5,0-2.8-0.2-4-0.6c-1.2-0.4-2.1-1-2.8-1.8c-0.7-0.8-1.2-1.7-1.5-2.9H16c0.2,1.9,0.8,3.5,1.7,4.9
		c0.9,1.4,2.1,2.6,3.6,3.5c1.5,0.9,3.1,1.6,4.9,2.1c1.8,0.5,3.6,0.7,5.5,0.7C34.6,59.5,37.2,59,39.4,58"/>
</g>
</svg>
