<?xml version="1.0" encoding="utf-8"?>
<!-- Generator: Adobe Illustrator 26.0.2, SVG Export Plug-In . SVG Version: 6.00 Build 0)  -->
<svg version="1.1" id="Layer_1" xmlns="http://www.w3.org/2000/svg" xmlns:xlink="http://www.w3.org/1999/xlink" x="0px" y="0px"
	 viewBox="0 0 30 30" style="enable-background:new 0 0 30 30;" xml:space="preserve">
<style type="text/css">
	.st0{fill:#0d284e;}
</style>
<g>
	<path class="st0" d="M15,12.9c-0.6,0-1-0.5-1-1c0-0.6,0.5-1,1-1s1,0.5,1,1C16,12.5,15.6,12.9,15,12.9 M13.7,17.6h0.8v-2.1h-0.8
		c-0.4,0-0.8-0.3-0.8-0.8c0-0.4,0.3-0.8,0.8-0.8h1.5c0.4,0,0.8,0.3,0.8,0.8v2.8h0.3c0.4,0,0.8,0.3,0.8,0.8c0,0.4-0.3,0.8-0.8,0.8
		h-2.6c-0.4,0-0.8-0.3-0.8-0.8C12.9,17.9,13.3,17.6,13.7,17.6 M15,23.2c4.6,0,8.2-3.7,8.2-8.2S19.6,6.8,15,6.8S6.8,10.4,6.8,15
		S10.4,23.2,15,23.2"/>
</g>
</svg>
