<?xml version="1.0" encoding="utf-8"?>
<!-- Generator: Adobe Illustrator 26.0.2, SVG Export Plug-In . SVG Version: 6.00 Build 0)  -->
<svg version="1.1" id="Layer_1" xmlns="http://www.w3.org/2000/svg" xmlns:xlink="http://www.w3.org/1999/xlink" x="0px" y="0px"
	 viewBox="0 0 500 500" style="enable-background:new 0 0 500 500;" xml:space="preserve">
<style type="text/css">
	.st0{fill:#dfe5ed;}
</style>
<g>
	<g>
		<g>
			<g>
				<rect x="31" y="41.7" class="st0" width="36.1" height="94.1"/>
				<rect x="100" y="41.7" class="st0" width="24" height="94.1"/>
				<rect x="228.3" y="41.7" class="st0" width="19.5" height="94.1"/>
				<rect x="356.9" y="41.7" class="st0" width="14.4" height="94.1"/>
				<rect x="426.7" y="41.7" class="st0" width="6.9" height="94.1"/>
				<rect x="164.2" y="41.7" class="st0" width="21.6" height="94.1"/>
				<rect x="293.8" y="41.7" class="st0" width="14.4" height="94.1"/>
				<rect x="31" y="230.9" class="st0" width="36.1" height="94.1"/>
				<rect x="100" y="230.9" class="st0" width="24" height="94.1"/>
				<rect x="228.3" y="230.9" class="st0" width="19.5" height="94.1"/>
				<rect x="356.9" y="230.9" class="st0" width="14.4" height="94.1"/>
				<rect x="426.7" y="230.9" class="st0" width="6.9" height="94.1"/>
				<rect x="164.2" y="230.9" class="st0" width="21.6" height="94.1"/>
				<rect x="293.8" y="230.9" class="st0" width="14.4" height="94.1"/>
				<rect x="66.4" y="325" class="st0" width="36.1" height="133.3"/>
				<rect x="135.4" y="325" class="st0" width="24" height="133.3"/>
				<rect x="263.7" y="325" class="st0" width="19.5" height="133.3"/>
				<rect x="392.2" y="325" class="st0" width="14.4" height="133.3"/>
				<rect x="462.1" y="325" class="st0" width="6.9" height="133.3"/>
				<rect x="199.6" y="325" class="st0" width="21.6" height="133.3"/>
				<rect x="329.2" y="325" class="st0" width="14.4" height="133.3"/>
			</g>
		</g>
	</g>
</g>
</svg>
